<svg xmlns="http://www.w3.org/2000/svg" xmlns:xlink="http://www.w3.org/1999/xlink" viewBox="0 0 66 61" fill="#fff" fill-rule="evenodd" stroke="#000" stroke-linecap="round" stroke-linejoin="round" width="300" height="300" font-family="Roboto" font-size="14px" text-anchor="middle"><defs><style type="text/css"></style></defs><use xlink:href="#A" x=".5" y=".5"></use><symbol id="A" overflow="visible"><g stroke="none" fill-rule="nonzero"><path d="M24.33 28.026A15.02 15.02 0 0 1 31.838 0a15.02 15.02 0 0 1 7.509 28.026l-4.523-7.832c2.342-1.352 3.484-4.11 2.784-6.72s-3.067-4.428-5.77-4.428-5.07 1.816-5.77 4.43.442 5.37 2.784 6.72z" fill="#ff0101"></path><path d="M56.492 31.662a15.02 15.02 0 0 1-7.509 28.026 15.02 15.02 0 0 1-7.509-28.025l4.523 7.832c-2.342 1.352-3.484 4.11-2.784 6.72s3.067 4.43 5.77 4.43 5.072-1.816 5.77-4.428-.442-5.37-2.784-6.72z" fill="#0101ff"></path><path d="M30.038 44.668a15.02 15.02 0 0 1-28.026 7.51 15.02 15.02 0 0 1 2.387-18.13 15.02 15.02 0 0 1 18.13-2.387l-4.52 7.833c-2.342-1.352-5.3-.963-7.212.95s-2.302 4.87-.95 7.213 4.11 3.484 6.72 2.784 4.43-3.067 4.43-5.77z" fill="#01ff01"></path></g></symbol></svg>